<svg width="278" height="280" viewBox="0 0 278 280" fill="none" xmlns="http://www.w3.org/2000/svg">
<path d="M139.169 12.158V1.89389M125.848 12.8469L124.78 2.64399M112.672 14.9288L110.551 4.89428M99.7856 18.3884L96.627 8.62947M87.3342 23.1722L83.1684 13.8036M75.4397 29.2419L70.3279 20.3555M64.2472 36.5209L58.2351 28.2239M53.8787 44.9404L47.035 37.3169M44.4409 54.3931L36.8419 47.5274M36.0408 64.7873L27.7628 58.7559M28.7699 76.0082L19.912 70.88M22.7044 87.9256L13.3582 83.7541M17.9131 100.417L8.18541 97.2482M14.4569 113.345L4.44694 111.209M12.3588 126.556L2.1886 125.484M11.6568 139.92H1.42564M12.3435 153.284L2.17334 154.355M14.4187 166.502L4.41642 168.638M17.8673 179.43L8.13963 182.599M22.6357 191.929L13.2972 196.1M28.686 203.854L19.8281 208.982M35.9417 215.083L27.6712 221.114M44.3341 225.484L36.7351 232.35M53.7566 234.952L46.9129 242.584M64.1175 243.387L58.1054 251.684M75.3024 250.682L70.1906 259.568M87.1816 256.767L83.0235 266.135M99.633 261.566L96.4744 271.325M112.519 265.041L110.391 275.075M125.688 267.138L124.62 277.341M139.009 267.85V278.106M152.33 267.153L153.398 277.364M165.506 265.071L167.635 275.106M178.393 261.619L181.551 271.378M190.852 256.828L195.01 266.204M202.738 250.758L207.85 259.645M213.931 243.479L219.943 251.784M224.3 235.067L231.143 242.691M233.737 225.607L241.344 232.473M242.145 215.213L250.415 221.244M249.416 203.992L258.274 209.128M255.481 192.074L264.82 196.246M260.265 179.583L269.993 182.759M263.729 166.663L273.731 168.798M265.819 153.444L275.99 154.516M266.529 140.08H276.753M265.835 126.716L276.012 125.645M263.759 113.498L273.762 111.37M260.319 100.57L270.046 97.4013M255.542 88.0787L264.889 83.8995M249.492 76.146L258.35 71.0177M242.237 64.9174L250.515 58.8861M233.852 54.5156L241.451 47.6499M224.422 45.0475L231.265 37.424M214.061 36.6204L220.073 28.3157M202.876 29.3261L207.995 20.4397M190.997 23.2411L195.155 13.8648M178.545 18.4343L181.711 8.67539M165.667 14.967L167.795 4.9249M152.49 12.8622L153.559 2.65929" stroke="#222222" stroke-width="2" stroke-miterlimit="10" stroke-linecap="round"/>
</svg>
